<svg width="27" height="33" viewBox="0 0 27 33" fill="none" xmlns="http://www.w3.org/2000/svg">
<path d="M22.6491 6.6011C21.845 6.6011 21.0591 6.82694 20.3906 7.25005C19.722 7.67316 19.201 8.27455 18.8933 8.97817C18.5856 9.68178 18.5051 10.456 18.662 11.203C18.8188 11.9499 19.206 12.636 19.7745 13.1746C20.3431 13.7131 21.0674 14.0798 21.856 14.2284C22.6446 14.377 23.4619 14.3007 24.2048 14.0093C24.9476 13.7178 25.5825 13.2243 26.0292 12.591C26.4759 11.9578 26.7143 11.2133 26.7143 10.4517C26.7143 9.43049 26.286 8.45106 25.5236 7.72893C24.7612 7.00679 23.7272 6.6011 22.6491 6.6011ZM22.6491 12.102C22.3045 12.102 21.9676 12.0052 21.6811 11.8239C21.3946 11.6426 21.1713 11.3848 21.0395 11.0833C20.9076 10.7817 20.8731 10.4499 20.9403 10.1298C21.0075 9.80967 21.1735 9.51562 21.4171 9.28482C21.6608 9.05403 21.9712 8.89685 22.3092 8.83318C22.6471 8.7695 22.9974 8.80218 23.3158 8.92709C23.6341 9.05199 23.9062 9.26351 24.0977 9.5349C24.2891 9.80628 24.3913 10.1253 24.3913 10.4517C24.3913 10.8894 24.2077 11.3092 23.881 11.6187C23.5543 11.9281 23.1111 12.102 22.6491 12.102ZM10.4534 19.9408V11.0018C10.4534 10.71 10.331 10.4302 10.1132 10.2239C9.8954 10.0176 9.59997 9.90165 9.29193 9.90165C8.98388 9.90165 8.68845 10.0176 8.47063 10.2239C8.25281 10.4302 8.13043 10.71 8.13043 11.0018V19.9408C7.03555 20.2086 6.08135 20.8454 5.44669 21.7319C4.81204 22.6184 4.54051 23.6938 4.68299 24.7563C4.82548 25.8189 5.3722 26.7958 6.22067 27.5038C7.06915 28.2119 8.16113 28.6025 9.29193 28.6025C10.4227 28.6025 11.5147 28.2119 12.3632 27.5038C13.2117 26.7958 13.7584 25.8189 13.9009 24.7563C14.0433 23.6938 13.7718 22.6184 13.1372 21.7319C12.5025 20.8454 11.5483 20.2086 10.4534 19.9408ZM9.29193 26.4044C8.83248 26.4044 8.38336 26.2754 8.00135 26.0336C7.61933 25.7918 7.32159 25.4481 7.14577 25.0461C6.96995 24.644 6.92395 24.2016 7.01358 23.7748C7.10321 23.3479 7.32446 22.9559 7.64933 22.6481C7.97421 22.3404 8.38812 22.1308 8.83873 22.0459C9.28935 21.961 9.75642 22.0046 10.1809 22.1712C10.6054 22.3377 10.9682 22.6197 11.2234 22.9816C11.4787 23.3434 11.6149 23.7688 11.6149 24.204C11.6149 24.7876 11.3702 25.3473 10.9345 25.7599C10.4989 26.1726 9.90802 26.4044 9.29193 26.4044ZM15.0994 17.3279V5.50092C15.0994 4.04198 14.4875 2.6428 13.3984 1.61118C12.3093 0.579559 10.8322 0 9.29193 0C7.75169 0 6.27455 0.579559 5.18544 1.61118C4.09633 2.6428 3.48447 4.04198 3.48447 5.50092V17.3279C1.98168 18.4676 0.889693 20.0213 0.359434 21.7742C-0.170825 23.5272 -0.11318 25.3929 0.524403 27.1135C1.16199 28.8341 2.34803 30.3246 3.91862 31.3791C5.48921 32.4336 7.3668 33 9.29193 33C11.217 33 13.0946 32.4336 14.6652 31.3791C16.2358 30.3246 17.4219 28.8341 18.0594 27.1135C18.697 25.3929 18.7547 23.5272 18.2244 21.7742C17.6942 20.0213 16.6022 18.4676 15.0994 17.3279ZM9.29193 30.8051C7.80804 30.8053 6.36285 30.3567 5.16677 29.5248C3.97069 28.6929 3.08616 27.5211 2.64197 26.18C2.19778 24.8389 2.21711 23.3985 2.69715 22.0685C3.1772 20.7386 4.09289 19.5884 5.31092 18.7856C5.46505 18.6837 5.59075 18.5478 5.67724 18.3897C5.76373 18.2317 5.80841 18.056 5.80745 17.878V5.50092C5.80745 4.62556 6.17457 3.78605 6.82803 3.16708C7.4815 2.5481 8.36779 2.20037 9.29193 2.20037C10.2161 2.20037 11.1024 2.5481 11.7558 3.16708C12.4093 3.78605 12.7764 4.62556 12.7764 5.50092V17.878C12.7764 18.0551 12.8215 18.2296 12.908 18.3867C12.9944 18.5438 13.1196 18.6787 13.2729 18.7801C14.4935 19.5821 15.4116 20.7325 15.8933 22.0636C16.3749 23.3946 16.395 24.8366 15.9505 26.1792C15.506 27.5218 14.6203 28.6948 13.4224 29.5269C12.2246 30.3591 10.7774 30.8069 9.29193 30.8051Z" fill="#FF6666"/>
</svg>
