<svg width="175" height="84" viewBox="0 0 175 84" fill="none" xmlns="http://www.w3.org/2000/svg">
<path d="M1 51C1 51 18.1941 37.8764 34.5 36.2276C47.4356 34.9196 56.0359 39.5293 69 38.5C93.1352 36.5838 93.0716 -3.02729 117 0.500013C135.016 3.15578 147.32 34.8816 165.5 36.2276C173.227 36.7997 173.947 36.3836 174 36.2595V36.2276C174 36.2276 174.008 36.2399 174 36.2595V83.5H1V51Z" fill="url(#paint0_linear_4401_15)"/>
<path d="M1 72.2276C1 72.2276 20.8911 53.8764 37.1969 52.2276C50.1325 50.9196 56.7036 60.2568 69.6677 59.2276C93.8029 57.3114 93.647 18.7003 117.575 22.2276C135.591 24.8833 133.463 50.8816 151.643 52.2276C160.59 52.89 174 47.2276 174 47.2276" stroke="#F3A53F" stroke-linecap="round"/>
<defs>
<linearGradient id="paint0_linear_4401_15" x1="87.5" y1="11" x2="87.5" y2="83.5" gradientUnits="userSpaceOnUse">
<stop stop-color="#F8DEBD"/>
<stop offset="1" stop-color="#FBEBD6" stop-opacity="0"/>
</linearGradient>
</defs>
</svg>
