<svg width="175" height="72" viewBox="0 0 175 72" fill="none" xmlns="http://www.w3.org/2000/svg">
<path d="M34 24C19.2418 21.7247 13.3533 21.8889 1 28.5V71.5H174V0C163.142 4.71892 151.37 6.625 140 10C121.64 15.4501 114.985 0.850295 97.5 8.5C81.5 15.5 84.0441 32.2141 67.5 34.5C52.7065 36.544 48.7582 26.2753 34 24Z" fill="url(#paint0_linear_4401_39)" fill-opacity="0.4"/>
<path d="M1 46.7541C13.3533 40.143 22.6163 38.5678 36.5268 40.7124C51.2849 42.9876 55.2005 60.8817 69.9941 58.8377C86.5382 56.5518 82.7445 34.6674 97.2827 26.6149C113.978 17.3676 127.836 27.5336 146.196 22.0836C157.566 18.7085 163.142 14.7189 174 10" stroke="#CA6B6E"/>
<defs>
<linearGradient id="paint0_linear_4401_39" x1="88.0058" y1="-19" x2="88.0059" y2="68" gradientUnits="userSpaceOnUse">
<stop stop-color="#DA8184"/>
<stop offset="1" stop-color="#CA6B6E" stop-opacity="0"/>
</linearGradient>
</defs>
</svg>
