<svg width="175" height="75" viewBox="0 0 175 75" fill="none" xmlns="http://www.w3.org/2000/svg">
<path d="M19 39.5C8.04776 41.2916 10 41.5 0 36.6607L1 74.8393H174V34.3393C164.573 22.4283 167.075 5.94297 152.5 1.5C136.251 -3.45343 116.228 12.0098 99.5 15C80.1229 18.4638 77.7589 7.4966 58.5 11.5C41.6628 15 36.1339 36.6972 19 39.5Z" fill="url(#paint0_linear_4401_48)"/>
<path d="M1 52.3393C9.98645 58.8164 17.7076 60.6309 28.6599 58.8393C45.7938 56.0365 43.3386 33.5501 59.3372 26.8393C77.4767 19.2305 90.2508 33.8031 109.628 30.3393C126.356 27.3491 133.611 8.88586 149.86 13.8393C164.435 18.2823 164.573 32.4283 174 44.3393" stroke="#478F96"/>
<defs>
<linearGradient id="paint0_linear_4401_48" x1="87.5" y1="14.5" x2="87.5" y2="74.8394" gradientUnits="userSpaceOnUse">
<stop stop-color="#D0FBFF"/>
<stop offset="1" stop-color="#DDF2F4" stop-opacity="0"/>
</linearGradient>
</defs>
</svg>
