<svg width="23" height="35" viewBox="0 0 23 35" fill="none" xmlns="http://www.w3.org/2000/svg">
<path d="M18.771 2.33594H4.62644C3.83601 2.33594 3.17038 2.95885 3.17038 3.69856V18.8821C3.17038 19.6218 3.83601 20.2447 4.62644 20.2447H18.771C19.5615 20.2447 20.2271 19.6218 20.2271 18.8821V3.69856C20.2271 2.95885 19.5615 2.33594 18.771 2.33594ZM8.16259 14.4049H4.83445V13.2369H8.16259V14.4049ZM13.5708 14.4049H9.82666V13.2369H13.5708V14.4049ZM18.563 14.4049H15.2349V13.2369H18.563V14.4049Z" fill="#E79B38"/>
<path d="M20.4351 0H2.96238C1.71433 0 0.674286 0.973304 0.674286 2.14127V21.1402C0.674286 22.2692 1.13191 23.3204 1.92234 24.1379L4.04403 26.3181L4.08563 26.3571C5.54169 27.8365 5.7081 27.9922 6.08252 27.9922H9.41066V33.1313L9.99308 35H13.446L14.0285 33.1313V28.0311H17.3566C17.731 28.0311 17.8974 27.8754 19.3535 26.396L21.5168 24.1379C22.3072 23.3204 22.7648 22.2303 22.7648 21.1402V2.14127C22.7232 0.973304 21.6832 0 20.4351 0ZM6.91455 26.8632V25.6952H9.41066V26.8632H6.91455ZM12.3228 31.9244V29.5884H11.0747V31.9244H10.6587V25.6952H12.7388V31.9244H12.3228ZM10.9083 33.871L10.6587 33.0923H12.6972L12.4476 33.871H10.9083ZM13.9869 25.6952H16.483V26.8632H13.9869V25.6952ZM21.4752 21.1402C21.4752 21.9577 21.1424 22.7364 20.5599 23.3593L18.4382 25.5395L18.3966 25.5784C18.1886 25.812 17.939 26.0456 17.731 26.2403V25.0723C17.731 24.7608 17.4398 24.4883 17.107 24.4883H6.29053C5.95771 24.4883 5.6665 24.7608 5.6665 25.0723V26.2403C5.45849 26.0067 5.20888 25.7731 5.00087 25.5784L2.83758 23.3593C2.25515 22.7364 1.92234 21.9577 1.92234 21.1402V2.14127C1.92234 1.59622 2.37996 1.16796 2.96238 1.16796H20.4351C21.0176 1.16796 21.4752 1.59622 21.4752 2.14127V21.1402Z" fill="#E79B38"/>
<path d="M7.09815 21.5863C6.51328 22.1336 6.3289 22.8485 6.68632 23.183C7.04374 23.5174 7.80761 23.3449 8.39248 22.7976C8.97735 22.2502 9.16173 21.5354 8.80431 21.2009C8.44689 20.8664 7.68302 21.0389 7.09815 21.5863Z" fill="#E79B38"/>
<path d="M14.5883 21.586C14.0035 22.1334 13.8191 22.8482 14.1765 23.1827C14.5339 23.5172 15.2978 23.3447 15.8827 22.7973C16.4675 22.25 16.6519 21.5351 16.2945 21.2006C15.9371 20.8662 15.1732 21.0387 14.5883 21.586Z" fill="#E79B38"/>
<path d="M10.8444 21.586C10.2595 22.1334 10.0751 22.8482 10.4325 23.1827C10.79 23.5172 11.5538 23.3447 12.1387 22.7973C12.7236 22.25 12.9079 21.5351 12.5505 21.2006C12.1931 20.8662 11.4292 21.0387 10.8444 21.586Z" fill="#E79B38"/>
</svg>
