<svg width="33" height="28" viewBox="0 0 33 28" fill="none" xmlns="http://www.w3.org/2000/svg">
<path fill-rule="evenodd" clip-rule="evenodd" d="M16.0288 1.93869C23.7754 -1.77238 28.5128 0.358963 30.4984 4.01302C31.5596 5.96601 32.4141 9.43054 31.907 13.0457H24.7283L23.7911 11.2183C23.4033 10.355 22.1055 10.2645 21.6004 11.0977L20.8357 12.3585L19.269 6.52725C19.0171 5.35315 17.2221 5.28342 16.8833 6.45214L15.2055 12.2287L14.6498 10.3046C14.4029 9.43632 13.2059 9.15242 12.5539 9.84194L9.51614 13.0457H0.150159C-0.356956 9.43054 0.497565 5.96601 1.55913 4.01302C3.54437 0.358963 8.28169 -1.77238 16.0288 1.93869ZM31.3929 15.3411C29.7328 20.6419 21.1761 26.8287 16.0288 27.6819C10.8815 26.8283 2.32474 20.6423 0.664683 15.3415H10.0615C10.4649 15.3415 10.8226 15.1589 11.0461 14.8781L12.8758 12.9486L14.0164 16.9193C14.3399 18.0518 16.0572 18.0403 16.3824 16.9232L18.0214 11.2838L19.204 15.6863C19.481 16.724 20.9855 16.8604 21.4881 15.9209L22.5743 14.1293L22.8604 14.6867C23.0699 15.0969 23.5067 15.3365 23.9623 15.3369L31.3929 15.3411Z" fill="#CA6B6E"/>
</svg>
